<?xml version="1.0" encoding="UTF-8" standalone="no"?><svg xmlns="http://www.w3.org/2000/svg" xmlns:xlink="http://www.w3.org/1999/xlink" contentScriptType="application/ecmascript" contentStyleType="text/css" height="360px" preserveAspectRatio="none" style="width:902px;height:360px;" version="1.1" viewBox="0 0 902 360" width="902px" zoomAndPan="magnify"><defs/><g><!--MD5=[3d80a549f5bc3a93ad0dcdbf63b283c1]
cluster Phpolar\\PropertyInjector--><polygon fill="#FFFFFF" points="366.5,24,566.5,24,573.5,46.2969,576.5,46.2969,576.5,174,366.5,174,366.5,24" style="stroke: #000000; stroke-width: 1.5;"/><line style="stroke: #000000; stroke-width: 1.5;" x1="366.5" x2="573.5" y1="46.2969" y2="46.2969"/><text fill="#000000" font-family="sans-serif" font-size="14" font-weight="bold" lengthAdjust="spacingAndGlyphs" textLength="194" x="370.5" y="38.9951">Phpolar\PropertyInjector</text><!--MD5=[1b486da96c16b34ba3038c50a0718476]
cluster Phpolar\\PropertyInjectorContract--><polygon fill="#FFFFFF" points="14,91,282,91,289,113.2969,292,113.2969,292,174,14,174,14,91" style="stroke: #000000; stroke-width: 1.5;"/><line style="stroke: #000000; stroke-width: 1.5;" x1="14" x2="289" y1="113.2969" y2="113.2969"/><text fill="#000000" font-family="sans-serif" font-size="14" font-weight="bold" lengthAdjust="spacingAndGlyphs" textLength="262" x="18" y="105.9951">Phpolar\PropertyInjectorContract</text><!--MD5=[0bd2d27e1d25bd0c4d8964e025e62a12]
cluster Phpolar\\PropertyInjector\\Exception--><polygon fill="#FFFFFF" points="320,198,602,198,609,220.2969,880,220.2969,880,348,320,348,320,198" style="stroke: #000000; stroke-width: 1.5;"/><line style="stroke: #000000; stroke-width: 1.5;" x1="320" x2="609" y1="220.2969" y2="220.2969"/><text fill="#000000" font-family="sans-serif" font-size="14" font-weight="bold" lengthAdjust="spacingAndGlyphs" textLength="276" x="324" y="212.9951">Phpolar\PropertyInjector\Exception</text><!--MD5=[f8c21cada23b69eff96ecb02f57f19d2]
class Phpolar\\PropertyInjector\\Inject--><rect fill="#FEFECE" height="32" id="Phpolar\\PropertyInjector\\Inject" style="stroke: #A80036; stroke-width: 1.5;" width="66" x="438.5" y="59"/><ellipse cx="453.5" cy="75" fill="#ADD1B2" rx="11" ry="11" style="stroke: #A80036; stroke-width: 1.0;"/><path d="M456.4688,80.6406 Q455.8906,80.9375 455.25,81.0781 Q454.6094,81.2344 453.9063,81.2344 Q451.4063,81.2344 450.0781,79.5938 Q448.7656,77.9375 448.7656,74.8125 Q448.7656,71.6875 450.0781,70.0313 Q451.4063,68.375 453.9063,68.375 Q454.6094,68.375 455.25,68.5313 Q455.9063,68.6875 456.4688,68.9844 L456.4688,71.7031 Q455.8438,71.125 455.25,70.8594 Q454.6563,70.5781 454.0313,70.5781 Q452.6875,70.5781 452,71.6563 Q451.3125,72.7188 451.3125,74.8125 Q451.3125,76.9063 452,77.9844 Q452.6875,79.0469 454.0313,79.0469 Q454.6563,79.0469 455.25,78.7813 Q455.8438,78.5 456.4688,77.9219 L456.4688,80.6406 Z "/><text fill="#000000" font-family="sans-serif" font-size="12" lengthAdjust="spacingAndGlyphs" textLength="34" x="467.5" y="79.1543">Inject</text><!--MD5=[befa8b6c98ce4912f8b34376d93c8723]
class Phpolar\\PropertyInjector\\PropertyInjector--><rect fill="#FEFECE" height="32" id="Phpolar\\PropertyInjector\\PropertyInjector" style="stroke: #A80036; stroke-width: 1.5;" width="132" x="405.5" y="126"/><ellipse cx="420.5" cy="142" fill="#ADD1B2" rx="11" ry="11" style="stroke: #A80036; stroke-width: 1.0;"/><path d="M423.4688,147.6406 Q422.8906,147.9375 422.25,148.0781 Q421.6094,148.2344 420.9063,148.2344 Q418.4063,148.2344 417.0781,146.5938 Q415.7656,144.9375 415.7656,141.8125 Q415.7656,138.6875 417.0781,137.0313 Q418.4063,135.375 420.9063,135.375 Q421.6094,135.375 422.25,135.5313 Q422.9063,135.6875 423.4688,135.9844 L423.4688,138.7031 Q422.8438,138.125 422.25,137.8594 Q421.6563,137.5781 421.0313,137.5781 Q419.6875,137.5781 419,138.6563 Q418.3125,139.7188 418.3125,141.8125 Q418.3125,143.9063 419,144.9844 Q419.6875,146.0469 421.0313,146.0469 Q421.6563,146.0469 422.25,145.7813 Q422.8438,145.5 423.4688,144.9219 L423.4688,147.6406 Z "/><text fill="#000000" font-family="sans-serif" font-size="12" lengthAdjust="spacingAndGlyphs" textLength="100" x="434.5" y="146.1543">PropertyInjector</text><!--MD5=[74aa13500a5015b399d0f00d049406af]
class Phpolar\\PropertyInjectorContract\\PropertyInjectorInterface--><rect fill="#FEFECE" height="32" id="Phpolar\\PropertyInjectorContract\\PropertyInjectorInterface" style="stroke: #A80036; stroke-width: 1.5;" width="190" x="58" y="126"/><ellipse cx="73" cy="142" fill="#B4A7E5" rx="11" ry="11" style="stroke: #A80036; stroke-width: 1.0;"/><path d="M68.9219,137.7656 L68.9219,135.6094 L76.3125,135.6094 L76.3125,137.7656 L73.8438,137.7656 L73.8438,145.8438 L76.3125,145.8438 L76.3125,148 L68.9219,148 L68.9219,145.8438 L71.3906,145.8438 L71.3906,137.7656 L68.9219,137.7656 Z "/><text fill="#000000" font-family="sans-serif" font-size="12" font-style="italic" lengthAdjust="spacingAndGlyphs" textLength="158" x="87" y="146.1543">PropertyInjectorInterface</text><!--MD5=[cd814bf3728f1ccbe3cbc261fde75872]
class Phpolar\\PropertyInjector\\Exception\\IntersectionTypeException--><rect fill="#FEFECE" height="32" id="Phpolar\\PropertyInjector\\Exception\\IntersectionTypeException" style="stroke: #A80036; stroke-width: 1.5;" width="197" x="667" y="300"/><ellipse cx="682" cy="316" fill="#ADD1B2" rx="11" ry="11" style="stroke: #A80036; stroke-width: 1.0;"/><path d="M684.9688,321.6406 Q684.3906,321.9375 683.75,322.0781 Q683.1094,322.2344 682.4063,322.2344 Q679.9063,322.2344 678.5781,320.5938 Q677.2656,318.9375 677.2656,315.8125 Q677.2656,312.6875 678.5781,311.0313 Q679.9063,309.375 682.4063,309.375 Q683.1094,309.375 683.75,309.5313 Q684.4063,309.6875 684.9688,309.9844 L684.9688,312.7031 Q684.3438,312.125 683.75,311.8594 Q683.1563,311.5781 682.5313,311.5781 Q681.1875,311.5781 680.5,312.6563 Q679.8125,313.7188 679.8125,315.8125 Q679.8125,317.9063 680.5,318.9844 Q681.1875,320.0469 682.5313,320.0469 Q683.1563,320.0469 683.75,319.7813 Q684.3438,319.5 684.9688,318.9219 L684.9688,321.6406 Z "/><text fill="#000000" font-family="sans-serif" font-size="12" lengthAdjust="spacingAndGlyphs" textLength="165" x="696" y="320.1543">IntersectionTypeException</text><!--MD5=[20c5371690c0d9ba26015d403e1b9c7e]
class Phpolar\\PropertyInjector\\Exception\\InvalidAttributeConfigurationException--><rect fill="#FEFECE" height="32" id="Phpolar\\PropertyInjector\\Exception\\InvalidAttributeConfigurationException" style="stroke: #A80036; stroke-width: 1.5;" width="271" x="336" y="267"/><ellipse cx="351" cy="283" fill="#ADD1B2" rx="11" ry="11" style="stroke: #A80036; stroke-width: 1.0;"/><path d="M353.9688,288.6406 Q353.3906,288.9375 352.75,289.0781 Q352.1094,289.2344 351.4063,289.2344 Q348.9063,289.2344 347.5781,287.5938 Q346.2656,285.9375 346.2656,282.8125 Q346.2656,279.6875 347.5781,278.0313 Q348.9063,276.375 351.4063,276.375 Q352.1094,276.375 352.75,276.5313 Q353.4063,276.6875 353.9688,276.9844 L353.9688,279.7031 Q353.3438,279.125 352.75,278.8594 Q352.1563,278.5781 351.5313,278.5781 Q350.1875,278.5781 349.5,279.6563 Q348.8125,280.7188 348.8125,282.8125 Q348.8125,284.9063 349.5,285.9844 Q350.1875,287.0469 351.5313,287.0469 Q352.1563,287.0469 352.75,286.7813 Q353.3438,286.5 353.9688,285.9219 L353.9688,288.6406 Z "/><text fill="#000000" font-family="sans-serif" font-size="12" lengthAdjust="spacingAndGlyphs" textLength="239" x="365" y="287.1543">InvalidAttributeConfigurationException</text><!--MD5=[162e6b3b091f8600c792cfd4bc0c3d98]
class Phpolar\\PropertyInjector\\Exception\\UnionTypeException--><rect fill="#FEFECE" height="32" id="Phpolar\\PropertyInjector\\Exception\\UnionTypeException" style="stroke: #A80036; stroke-width: 1.5;" width="158" x="686.5" y="233"/><ellipse cx="701.5" cy="249" fill="#ADD1B2" rx="11" ry="11" style="stroke: #A80036; stroke-width: 1.0;"/><path d="M704.4688,254.6406 Q703.8906,254.9375 703.25,255.0781 Q702.6094,255.2344 701.9063,255.2344 Q699.4063,255.2344 698.0781,253.5938 Q696.7656,251.9375 696.7656,248.8125 Q696.7656,245.6875 698.0781,244.0313 Q699.4063,242.375 701.9063,242.375 Q702.6094,242.375 703.25,242.5313 Q703.9063,242.6875 704.4688,242.9844 L704.4688,245.7031 Q703.8438,245.125 703.25,244.8594 Q702.6563,244.5781 702.0313,244.5781 Q700.6875,244.5781 700,245.6563 Q699.3125,246.7188 699.3125,248.8125 Q699.3125,250.9063 700,251.9844 Q700.6875,253.0469 702.0313,253.0469 Q702.6563,253.0469 703.25,252.7813 Q703.8438,252.5 704.4688,251.9219 L704.4688,254.6406 Z "/><text fill="#000000" font-family="sans-serif" font-size="12" lengthAdjust="spacingAndGlyphs" textLength="126" x="715.5" y="253.1543">UnionTypeException</text><!--MD5=[5c6c7d52e42032554528404b62c1d271]
class RuntimeException--><rect fill="#FEFECE" height="32" id="RuntimeException" style="stroke: #A80036; stroke-width: 1.5;" width="144" x="81" y="267"/><ellipse cx="96" cy="283" fill="#ADD1B2" rx="11" ry="11" style="stroke: #A80036; stroke-width: 1.0;"/><path d="M98.9688,288.6406 Q98.3906,288.9375 97.75,289.0781 Q97.1094,289.2344 96.4063,289.2344 Q93.9063,289.2344 92.5781,287.5938 Q91.2656,285.9375 91.2656,282.8125 Q91.2656,279.6875 92.5781,278.0313 Q93.9063,276.375 96.4063,276.375 Q97.1094,276.375 97.75,276.5313 Q98.4063,276.6875 98.9688,276.9844 L98.9688,279.7031 Q98.3438,279.125 97.75,278.8594 Q97.1563,278.5781 96.5313,278.5781 Q95.1875,278.5781 94.5,279.6563 Q93.8125,280.7188 93.8125,282.8125 Q93.8125,284.9063 94.5,285.9844 Q95.1875,287.0469 96.5313,287.0469 Q97.1563,287.0469 97.75,286.7813 Q98.3438,286.5 98.9688,285.9219 L98.9688,288.6406 Z "/><text fill="#000000" font-family="sans-serif" font-size="12" lengthAdjust="spacingAndGlyphs" textLength="112" x="110" y="287.1543">RuntimeException</text><!--MD5=[0339bc5c920e6882814217542649ecb7]
reverse link Phpolar\\PropertyInjectorContract\\PropertyInjectorInterface to Phpolar\\PropertyInjector\\PropertyInjector--><path d="M268.13,142 C268.13,142 405.12,142 405.12,142 " fill="none" id="Phpolar\\PropertyInjectorContract\\PropertyInjectorInterface&lt;-Phpolar\\PropertyInjector\\PropertyInjector" style="stroke: #516F42; stroke-width: 1.0; stroke-dasharray: 7.0,7.0;"/><polygon fill="none" points="268.13,149,248.13,142,268.13,135,268.13,149" style="stroke: #516F42; stroke-width: 1.0;"/><!--MD5=[06856c9a1d08e3865026d5f9fa2254de]
reverse link Phpolar\\PropertyInjector\\Exception\\InvalidAttributeConfigurationException to Phpolar\\PropertyInjector\\Exception\\IntersectionTypeException--><path d="M627.14,283 C627.14,283 677,283 677,283 C677,283 677,291.51 677,299.89 " fill="none" id="Phpolar\\PropertyInjector\\Exception\\InvalidAttributeConfigurationException&lt;-Phpolar\\PropertyInjector\\Exception\\IntersectionTypeException" style="stroke: #516F42; stroke-width: 1.0;"/><polygon fill="none" points="627.14,290,607.14,283,627.14,276,627.14,290" style="stroke: #516F42; stroke-width: 1.0;"/><!--MD5=[9f7f3750d21cee7d107e643d6d220a16]
reverse link RuntimeException to Phpolar\\PropertyInjector\\Exception\\InvalidAttributeConfigurationException--><path d="M245.27,283 C245.27,283 335.89,283 335.89,283 " fill="none" id="RuntimeException&lt;-Phpolar\\PropertyInjector\\Exception\\InvalidAttributeConfigurationException" style="stroke: #516F42; stroke-width: 1.0;"/><polygon fill="none" points="245.27,290,225.27,283,245.27,276,245.27,290" style="stroke: #516F42; stroke-width: 1.0;"/><!--MD5=[e0c6f350d22de47f45613f6119e9073e]
reverse link Phpolar\\PropertyInjector\\Exception\\InvalidAttributeConfigurationException to Phpolar\\PropertyInjector\\Exception\\UnionTypeException--><path d="M573,250.78 C573,250.78 573,249 573,249 C573,249 633.28,249 686.37,249 " fill="none" id="Phpolar\\PropertyInjector\\Exception\\InvalidAttributeConfigurationException&lt;-Phpolar\\PropertyInjector\\Exception\\UnionTypeException" style="stroke: #516F42; stroke-width: 1.0;"/><polygon fill="none" points="580,246.8,573,266.8,566,246.8,580,246.8" style="stroke: #516F42; stroke-width: 1.0;"/><!--MD5=[558a5c6187b7aca4d209332c0d2bc2a2]
@startuml
   skinparam ArrowColor #516f42
   skinparam activityBorderColor #516f42
   skinparam activityBackgroundColor #ffffff
   skinparam activityDiamondBorderColor #516f42
   skinparam activityDiamondBackgroundColor #ffffff
   skinparam shadowing false

skinparam shadowing false
skinparam linetype ortho
hide empty members
left to right direction
set namespaceSeparator \\


class \\Phpolar\\PropertyInjector\\Inject {
}

class \\Phpolar\\PropertyInjector\\PropertyInjector implements \\Phpolar\\PropertyInjectorContract\\PropertyInjectorInterface {
}

class \\Phpolar\\PropertyInjector\\Exception\\IntersectionTypeException extends \\Phpolar\\PropertyInjector\\Exception\\InvalidAttributeConfigurationException {
}

class \\Phpolar\\PropertyInjector\\Exception\\InvalidAttributeConfigurationException extends \\RuntimeException {
}

class \\Phpolar\\PropertyInjector\\Exception\\UnionTypeException extends \\Phpolar\\PropertyInjector\\Exception\\InvalidAttributeConfigurationException {
}

@enduml

PlantUML version 1.2020.02(Sun Mar 01 04:22:07 CST 2020)
(GPL source distribution)
Java Runtime: OpenJDK Runtime Environment
JVM: OpenJDK 64-Bit Server VM
Java Version: 11.0.20+8-post-Ubuntu-1ubuntu122.04
Operating System: Linux
Default Encoding: UTF-8
Language: en
Country: US
--></g></svg>