<svg xmlns="http://www.w3.org/2000/svg" xmlns:xlink="http://www.w3.org/1999/xlink" contentStyleType="text/css" height="461px" preserveAspectRatio="none" style="width:988px;height:461px;background:#FFFFFF;" version="1.1" viewBox="0 0 988 461" width="988px" zoomAndPan="magnify"><defs/><g><!--cluster Phpolar--><g id="cluster_Phpolar"><path d="M8.5,63 L70.5176,63 A3.75,3.75 0 0 1 73.0176,65.5 L80.0176,85.2969 L978.5,85.2969 A2.5,2.5 0 0 1 981,87.7969 L981,451.5 A2.5,2.5 0 0 1 978.5,454 L8.5,454 A2.5,2.5 0 0 1 6,451.5 L6,65.5 A2.5,2.5 0 0 1 8.5,63 " fill="none" style="stroke:#000000;stroke-width:1.5;"/><line style="stroke:#000000;stroke-width:1.5;" x1="6" x2="80.0176" y1="85.2969" y2="85.2969"/><text fill="#000000" font-family="sans-serif" font-size="14" font-weight="bold" lengthAdjust="spacing" textLength="61.0176" x="10" y="77.9951">Phpolar</text></g><!--cluster PropertyInjector--><g id="cluster_PropertyInjector"><path d="M295.5,106 L426.5059,106 A3.75,3.75 0 0 1 429.0059,108.5 L436.0059,128.2969 L954.5,128.2969 A2.5,2.5 0 0 1 957,130.7969 L957,427.5 A2.5,2.5 0 0 1 954.5,430 L295.5,430 A2.5,2.5 0 0 1 293,427.5 L293,108.5 A2.5,2.5 0 0 1 295.5,106 " fill="none" style="stroke:#000000;stroke-width:1.5;"/><line style="stroke:#000000;stroke-width:1.5;" x1="293" x2="436.0059" y1="128.2969" y2="128.2969"/><text fill="#000000" font-family="sans-serif" font-size="14" font-weight="bold" lengthAdjust="spacing" textLength="130.0059" x="297" y="120.9951">PropertyInjector</text></g><!--cluster Exception--><g id="cluster_Exception"><path d="M319.5,149 L397.9854,149 A3.75,3.75 0 0 1 400.4854,151.5 L407.4854,171.2969 L930.5,171.2969 A2.5,2.5 0 0 1 933,173.7969 L933,296.5 A2.5,2.5 0 0 1 930.5,299 L319.5,299 A2.5,2.5 0 0 1 317,296.5 L317,151.5 A2.5,2.5 0 0 1 319.5,149 " fill="none" style="stroke:#000000;stroke-width:1.5;"/><line style="stroke:#000000;stroke-width:1.5;" x1="317" x2="407.4854" y1="171.2969" y2="171.2969"/><text fill="#000000" font-family="sans-serif" font-size="14" font-weight="bold" lengthAdjust="spacing" textLength="77.4854" x="321" y="163.9951">Exception</text></g><!--cluster PropertyInjectorContract--><g id="cluster_PropertyInjectorContract"><path d="M32.5,339 L231.4004,339 A3.75,3.75 0 0 1 233.9004,341.5 L240.9004,361.2969 L266.5,361.2969 A2.5,2.5 0 0 1 269,363.7969 L269,427.5 A2.5,2.5 0 0 1 266.5,430 L32.5,430 A2.5,2.5 0 0 1 30,427.5 L30,341.5 A2.5,2.5 0 0 1 32.5,339 " fill="none" style="stroke:#000000;stroke-width:1.5;"/><line style="stroke:#000000;stroke-width:1.5;" x1="30" x2="240.9004" y1="361.2969" y2="361.2969"/><text fill="#000000" font-family="sans-serif" font-size="14" font-weight="bold" lengthAdjust="spacing" textLength="197.9004" x="34" y="353.9951">PropertyInjectorContract</text></g><!--class Inject__class--><g id="elem_Inject__class"><rect codeLine="15" fill="#F1F1F1" height="32" id="Inject__class" rx="2.5" ry="2.5" style="stroke:#181818;stroke-width:0.5;" width="70.6914" x="450" y="315"/><ellipse cx="465" cy="331" fill="#ADD1B2" rx="11" ry="11" style="stroke:#181818;stroke-width:1;"/><path d="M467.9688,336.6406 Q467.3906,336.9375 466.75,337.0781 Q466.1094,337.2344 465.4063,337.2344 Q462.9063,337.2344 461.5781,335.5938 Q460.2656,333.9375 460.2656,330.8125 Q460.2656,327.6875 461.5781,326.0313 Q462.9063,324.375 465.4063,324.375 Q466.1094,324.375 466.75,324.5313 Q467.4063,324.6875 467.9688,324.9844 L467.9688,327.7031 Q467.3438,327.125 466.75,326.8594 Q466.1563,326.5781 465.5313,326.5781 Q464.1875,326.5781 463.5,327.6563 Q462.8125,328.7188 462.8125,330.8125 Q462.8125,332.9063 463.5,333.9844 Q464.1875,335.0469 465.5313,335.0469 Q466.1563,335.0469 466.75,334.7813 Q467.3438,334.5 467.9688,333.9219 L467.9688,336.6406 Z " fill="#000000"/><text fill="#000000" font-family="sans-serif" font-size="14" lengthAdjust="spacing" textLength="38.6914" x="479" y="335.8467">Inject</text></g><!--class PropertyInjector__class--><g id="elem_PropertyInjector__class"><rect codeLine="23" fill="#F1F1F1" height="32" id="PropertyInjector__class" rx="2.5" ry="2.5" style="stroke:#181818;stroke-width:0.5;" width="144.8066" x="413" y="382"/><ellipse cx="428" cy="398" fill="#ADD1B2" rx="11" ry="11" style="stroke:#181818;stroke-width:1;"/><path d="M430.9688,403.6406 Q430.3906,403.9375 429.75,404.0781 Q429.1094,404.2344 428.4063,404.2344 Q425.9063,404.2344 424.5781,402.5938 Q423.2656,400.9375 423.2656,397.8125 Q423.2656,394.6875 424.5781,393.0313 Q425.9063,391.375 428.4063,391.375 Q429.1094,391.375 429.75,391.5313 Q430.4063,391.6875 430.9688,391.9844 L430.9688,394.7031 Q430.3438,394.125 429.75,393.8594 Q429.1563,393.5781 428.5313,393.5781 Q427.1875,393.5781 426.5,394.6563 Q425.8125,395.7188 425.8125,397.8125 Q425.8125,399.9063 426.5,400.9844 Q427.1875,402.0469 428.5313,402.0469 Q429.1563,402.0469 429.75,401.7813 Q430.3438,401.5 430.9688,400.9219 L430.9688,403.6406 Z " fill="#000000"/><text fill="#000000" font-family="sans-serif" font-size="14" lengthAdjust="spacing" textLength="112.8066" x="442" y="402.8467">PropertyInjector</text></g><!--class InvalidAttributeConfigurationException__class--><g id="elem_InvalidAttributeConfigurationException__class"><rect codeLine="29" fill="#F1F1F1" height="32" id="InvalidAttributeConfigurationException__class" rx="2.5" ry="2.5" style="stroke:#181818;stroke-width:0.5;" width="304.6855" x="333" y="184"/><ellipse cx="348" cy="200" fill="#ADD1B2" rx="11" ry="11" style="stroke:#181818;stroke-width:1;"/><path d="M350.9688,205.6406 Q350.3906,205.9375 349.75,206.0781 Q349.1094,206.2344 348.4063,206.2344 Q345.9063,206.2344 344.5781,204.5938 Q343.2656,202.9375 343.2656,199.8125 Q343.2656,196.6875 344.5781,195.0313 Q345.9063,193.375 348.4063,193.375 Q349.1094,193.375 349.75,193.5313 Q350.4063,193.6875 350.9688,193.9844 L350.9688,196.7031 Q350.3438,196.125 349.75,195.8594 Q349.1563,195.5781 348.5313,195.5781 Q347.1875,195.5781 346.5,196.6563 Q345.8125,197.7188 345.8125,199.8125 Q345.8125,201.9063 346.5,202.9844 Q347.1875,204.0469 348.5313,204.0469 Q349.1563,204.0469 349.75,203.7813 Q350.3438,203.5 350.9688,202.9219 L350.9688,205.6406 Z " fill="#000000"/><text fill="#000000" font-family="sans-serif" font-size="14" lengthAdjust="spacing" textLength="272.6855" x="362" y="204.8467">InvalidAttributeConfigurationException</text></g><!--class IntersectionTypeException__class--><g id="elem_IntersectionTypeException__class"><rect codeLine="33" fill="#F1F1F1" height="32" id="IntersectionTypeException__class" rx="2.5" ry="2.5" style="stroke:#181818;stroke-width:0.5;" width="218.7646" x="698" y="251"/><ellipse cx="713" cy="267" fill="#ADD1B2" rx="11" ry="11" style="stroke:#181818;stroke-width:1;"/><path d="M715.9688,272.6406 Q715.3906,272.9375 714.75,273.0781 Q714.1094,273.2344 713.4063,273.2344 Q710.9063,273.2344 709.5781,271.5938 Q708.2656,269.9375 708.2656,266.8125 Q708.2656,263.6875 709.5781,262.0313 Q710.9063,260.375 713.4063,260.375 Q714.1094,260.375 714.75,260.5313 Q715.4063,260.6875 715.9688,260.9844 L715.9688,263.7031 Q715.3438,263.125 714.75,262.8594 Q714.1563,262.5781 713.5313,262.5781 Q712.1875,262.5781 711.5,263.6563 Q710.8125,264.7188 710.8125,266.8125 Q710.8125,268.9063 711.5,269.9844 Q712.1875,271.0469 713.5313,271.0469 Q714.1563,271.0469 714.75,270.7813 Q715.3438,270.5 715.9688,269.9219 L715.9688,272.6406 Z " fill="#000000"/><text fill="#000000" font-family="sans-serif" font-size="14" lengthAdjust="spacing" textLength="186.7646" x="727" y="271.8467">IntersectionTypeException</text></g><!--class UnionTypeException__class--><g id="elem_UnionTypeException__class"><rect codeLine="37" fill="#F1F1F1" height="32" id="UnionTypeException__class" rx="2.5" ry="2.5" style="stroke:#181818;stroke-width:0.5;" width="175.9307" x="719.5" y="184"/><ellipse cx="734.5" cy="200" fill="#ADD1B2" rx="11" ry="11" style="stroke:#181818;stroke-width:1;"/><path d="M737.4688,205.6406 Q736.8906,205.9375 736.25,206.0781 Q735.6094,206.2344 734.9063,206.2344 Q732.4063,206.2344 731.0781,204.5938 Q729.7656,202.9375 729.7656,199.8125 Q729.7656,196.6875 731.0781,195.0313 Q732.4063,193.375 734.9063,193.375 Q735.6094,193.375 736.25,193.5313 Q736.9063,193.6875 737.4688,193.9844 L737.4688,196.7031 Q736.8438,196.125 736.25,195.8594 Q735.6563,195.5781 735.0313,195.5781 Q733.6875,195.5781 733,196.6563 Q732.3125,197.7188 732.3125,199.8125 Q732.3125,201.9063 733,202.9844 Q733.6875,204.0469 735.0313,204.0469 Q735.6563,204.0469 736.25,203.7813 Q736.8438,203.5 737.4688,202.9219 L737.4688,205.6406 Z " fill="#000000"/><text fill="#000000" font-family="sans-serif" font-size="14" lengthAdjust="spacing" textLength="143.9307" x="748.5" y="204.8467">UnionTypeException</text></g><!--class PropertyInjectorInterface__class--><g id="elem_PropertyInjectorInterface__class"><rect codeLine="19" fill="#F1F1F1" height="40.2656" id="PropertyInjectorInterface__class" rx="2.5" ry="2.5" style="stroke:#181818;stroke-width:0.5;" width="207.4854" x="46" y="374"/><ellipse cx="61" cy="394.1328" fill="#ADD1B2" rx="11" ry="11" style="stroke:#181818;stroke-width:1;"/><path d="M63.9688,399.7734 Q63.3906,400.0703 62.75,400.2109 Q62.1094,400.3672 61.4063,400.3672 Q58.9063,400.3672 57.5781,398.7266 Q56.2656,397.0703 56.2656,393.9453 Q56.2656,390.8203 57.5781,389.1641 Q58.9063,387.5078 61.4063,387.5078 Q62.1094,387.5078 62.75,387.6641 Q63.4063,387.8203 63.9688,388.1172 L63.9688,390.8359 Q63.3438,390.2578 62.75,389.9922 Q62.1563,389.7109 61.5313,389.7109 Q60.1875,389.7109 59.5,390.7891 Q58.8125,391.8516 58.8125,393.9453 Q58.8125,396.0391 59.5,397.1172 Q60.1875,398.1797 61.5313,398.1797 Q62.1563,398.1797 62.75,397.9141 Q63.3438,397.6328 63.9688,397.0547 L63.9688,399.7734 Z " fill="#000000"/><text fill="#000000" font-family="sans-serif" font-size="12" font-style="italic" lengthAdjust="spacing" textLength="64.4824" x="130.5015" y="390.1387">&#171;external&#187;</text><text fill="#000000" font-family="sans-serif" font-size="14" lengthAdjust="spacing" textLength="175.4854" x="75" y="405.9639">PropertyInjectorInterface</text></g><!--class RuntimeException__class--><g id="elem_RuntimeException__class"><rect codeLine="26" fill="#F1F1F1" height="40.2656" id="RuntimeException__class" rx="2.5" ry="2.5" style="stroke:#181818;stroke-width:0.5;" width="160.249" x="69.5" y="7"/><ellipse cx="84.5" cy="27.1328" fill="#ADD1B2" rx="11" ry="11" style="stroke:#181818;stroke-width:1;"/><path d="M87.4688,32.7734 Q86.8906,33.0703 86.25,33.2109 Q85.6094,33.3672 84.9063,33.3672 Q82.4063,33.3672 81.0781,31.7266 Q79.7656,30.0703 79.7656,26.9453 Q79.7656,23.8203 81.0781,22.1641 Q82.4063,20.5078 84.9063,20.5078 Q85.6094,20.5078 86.25,20.6641 Q86.9063,20.8203 87.4688,21.1172 L87.4688,23.8359 Q86.8438,23.2578 86.25,22.9922 Q85.6563,22.7109 85.0313,22.7109 Q83.6875,22.7109 83,23.7891 Q82.3125,24.8516 82.3125,26.9453 Q82.3125,29.0391 83,30.1172 Q83.6875,31.1797 85.0313,31.1797 Q85.6563,31.1797 86.25,30.9141 Q86.8438,30.6328 87.4688,30.0547 L87.4688,32.7734 Z " fill="#000000"/><text fill="#000000" font-family="sans-serif" font-size="12" font-style="italic" lengthAdjust="spacing" textLength="64.4824" x="130.3833" y="23.1387">&#171;external&#187;</text><text fill="#000000" font-family="sans-serif" font-size="14" lengthAdjust="spacing" textLength="128.249" x="98.5" y="38.9639">RuntimeException</text></g><!--reverse link PropertyInjectorInterface__class to PropertyInjector__class--><g id="link_PropertyInjectorInterface__class_PropertyInjector__class"><path d="M271.05,398 C322.83,398 366.22,398 412.91,398 " fill="none" id="PropertyInjectorInterface__class-backto-PropertyInjector__class" style="stroke:#516F42;stroke-width:1;stroke-dasharray:7.0,7.0;"/><polygon fill="none" points="253.05,398,271.05,404,271.05,392,253.05,398" style="stroke:#516F42;stroke-width:1;"/></g><!--reverse link RuntimeException__class to InvalidAttributeConfigurationException__class--><g id="link_RuntimeException__class_InvalidAttributeConfigurationException__class"><path d="M150,65.18 C150,110.82 150,200 150,200 C150,200 244.34,200 332.97,200 " fill="none" id="RuntimeException__class-backto-InvalidAttributeConfigurationException__class" style="stroke:#516F42;stroke-width:1;"/><polygon fill="none" points="150,47.18,144,65.18,156,65.18,150,47.18" style="stroke:#516F42;stroke-width:1;"/></g><!--reverse link InvalidAttributeConfigurationException__class to IntersectionTypeException__class--><g id="link_InvalidAttributeConfigurationException__class_IntersectionTypeException__class"><path d="M656.28,205.33 C695.57,205.33 709,205.33 709,205.33 C709,205.33 709,232.53 709,250.8 " fill="none" id="InvalidAttributeConfigurationException__class-backto-IntersectionTypeException__class" style="stroke:#516F42;stroke-width:1;"/><polygon fill="none" points="638.28,205.33,656.28,211.33,656.28,199.33,638.28,205.33" style="stroke:#516F42;stroke-width:1;"/></g><!--reverse link InvalidAttributeConfigurationException__class to UnionTypeException__class--><g id="link_InvalidAttributeConfigurationException__class_UnionTypeException__class"><path d="M656.01,194.67 C683.81,194.67 693.94,194.67 719.09,194.67 " fill="none" id="InvalidAttributeConfigurationException__class-backto-UnionTypeException__class" style="stroke:#516F42;stroke-width:1;"/><polygon fill="none" points="638.01,194.67,656.01,200.67,656.01,188.67,638.01,194.67" style="stroke:#516F42;stroke-width:1;"/></g><!--SRC=[nLFBRi8m4BpxArRq2rgrFI4aIdlWXlguHK8csH2tVaJh3H1L_7iTmgk1j46gL9-idV7kpDW60F-XR2v96XWIkUN8QKTmTNTzdzxU23Z6PSngeRXyS9GWTI7A-6DEhh39bfnkrddoevB6sQHpyns_omoVoSGjbPr3AhL78TgX0wALHIvp14USEP6f105DpYKOD3CaBpIc3Eo0r3nZI1HXqEQiyCXWfK6VonXVi6h7GLeK2R4lmoJBdPOKHHDoEHANO_iUpWVUPoKU8DRIU-ZLvHv83_LsEgsHi6hcMgoxz1qvonJIsvxQjc-onfQHqj1eCx4LtOdezm5NeMQbXi7W8ZqDdqtuxFmZxyha6WrQzY7ONqsV8YTM3kAtYfuBoyhWqoh6lBhNZQ9ciIs8JX54qRxFoQqlf5R9a9dKh60CFb8rBy932jplYhfH3ybLCcrIfTRcvR9tzPE948YlFyLh-4bDtIteEQbTfaVHXL7yaSqtUzRVQVaVZ7q1]--></g></svg>