<?xml version="1.0" encoding="UTF-8" standalone="no"?><svg xmlns="http://www.w3.org/2000/svg" xmlns:xlink="http://www.w3.org/1999/xlink" contentScriptType="application/ecmascript" contentStyleType="text/css" height="286px" preserveAspectRatio="none" style="width:840px;height:286px;" version="1.1" viewBox="0 0 840 286" width="840px" zoomAndPan="magnify"><defs/><g><!--MD5=[3d80a549f5bc3a93ad0dcdbf63b283c1]
cluster Phpolar\\PropertyInjector--><polygon fill="#FFFFFF" points="14,24,214,24,221,46.2969,224,46.2969,224,174,14,174,14,24" style="stroke: #000000; stroke-width: 1.5;"/><line style="stroke: #000000; stroke-width: 1.5;" x1="14" x2="221" y1="46.2969" y2="46.2969"/><text fill="#000000" font-family="sans-serif" font-size="14" font-weight="bold" lengthAdjust="spacingAndGlyphs" textLength="194" x="18" y="38.9951">Phpolar\PropertyInjector</text><!--MD5=[0bd2d27e1d25bd0c4d8964e025e62a12]
cluster Phpolar\\PropertyInjector\\Exception--><polygon fill="#FFFFFF" points="258,124,540,124,547,146.2969,818,146.2969,818,274,258,274,258,124" style="stroke: #000000; stroke-width: 1.5;"/><line style="stroke: #000000; stroke-width: 1.5;" x1="258" x2="547" y1="146.2969" y2="146.2969"/><text fill="#000000" font-family="sans-serif" font-size="14" font-weight="bold" lengthAdjust="spacingAndGlyphs" textLength="276" x="262" y="138.9951">Phpolar\PropertyInjector\Exception</text><!--MD5=[f8c21cada23b69eff96ecb02f57f19d2]
class Phpolar\\PropertyInjector\\Inject--><rect fill="#FEFECE" height="32" id="Phpolar\\PropertyInjector\\Inject" style="stroke: #A80036; stroke-width: 1.5;" width="66" x="86" y="59"/><ellipse cx="101" cy="75" fill="#ADD1B2" rx="11" ry="11" style="stroke: #A80036; stroke-width: 1.0;"/><path d="M103.9688,80.6406 Q103.3906,80.9375 102.75,81.0781 Q102.1094,81.2344 101.4063,81.2344 Q98.9063,81.2344 97.5781,79.5938 Q96.2656,77.9375 96.2656,74.8125 Q96.2656,71.6875 97.5781,70.0313 Q98.9063,68.375 101.4063,68.375 Q102.1094,68.375 102.75,68.5313 Q103.4063,68.6875 103.9688,68.9844 L103.9688,71.7031 Q103.3438,71.125 102.75,70.8594 Q102.1563,70.5781 101.5313,70.5781 Q100.1875,70.5781 99.5,71.6563 Q98.8125,72.7188 98.8125,74.8125 Q98.8125,76.9063 99.5,77.9844 Q100.1875,79.0469 101.5313,79.0469 Q102.1563,79.0469 102.75,78.7813 Q103.3438,78.5 103.9688,77.9219 L103.9688,80.6406 Z "/><text fill="#000000" font-family="sans-serif" font-size="12" lengthAdjust="spacingAndGlyphs" textLength="34" x="115" y="79.1543">Inject</text><!--MD5=[befa8b6c98ce4912f8b34376d93c8723]
class Phpolar\\PropertyInjector\\PropertyInjector--><rect fill="#FEFECE" height="32" id="Phpolar\\PropertyInjector\\PropertyInjector" style="stroke: #A80036; stroke-width: 1.5;" width="132" x="53" y="126"/><ellipse cx="68" cy="142" fill="#ADD1B2" rx="11" ry="11" style="stroke: #A80036; stroke-width: 1.0;"/><path d="M70.9688,147.6406 Q70.3906,147.9375 69.75,148.0781 Q69.1094,148.2344 68.4063,148.2344 Q65.9063,148.2344 64.5781,146.5938 Q63.2656,144.9375 63.2656,141.8125 Q63.2656,138.6875 64.5781,137.0313 Q65.9063,135.375 68.4063,135.375 Q69.1094,135.375 69.75,135.5313 Q70.4063,135.6875 70.9688,135.9844 L70.9688,138.7031 Q70.3438,138.125 69.75,137.8594 Q69.1563,137.5781 68.5313,137.5781 Q67.1875,137.5781 66.5,138.6563 Q65.8125,139.7188 65.8125,141.8125 Q65.8125,143.9063 66.5,144.9844 Q67.1875,146.0469 68.5313,146.0469 Q69.1563,146.0469 69.75,145.7813 Q70.3438,145.5 70.9688,144.9219 L70.9688,147.6406 Z "/><text fill="#000000" font-family="sans-serif" font-size="12" lengthAdjust="spacingAndGlyphs" textLength="100" x="82" y="146.1543">PropertyInjector</text><!--MD5=[cd814bf3728f1ccbe3cbc261fde75872]
class Phpolar\\PropertyInjector\\Exception\\IntersectionTypeException--><rect fill="#FEFECE" height="32" id="Phpolar\\PropertyInjector\\Exception\\IntersectionTypeException" style="stroke: #A80036; stroke-width: 1.5;" width="197" x="605" y="226"/><ellipse cx="620" cy="242" fill="#ADD1B2" rx="11" ry="11" style="stroke: #A80036; stroke-width: 1.0;"/><path d="M622.9688,247.6406 Q622.3906,247.9375 621.75,248.0781 Q621.1094,248.2344 620.4063,248.2344 Q617.9063,248.2344 616.5781,246.5938 Q615.2656,244.9375 615.2656,241.8125 Q615.2656,238.6875 616.5781,237.0313 Q617.9063,235.375 620.4063,235.375 Q621.1094,235.375 621.75,235.5313 Q622.4063,235.6875 622.9688,235.9844 L622.9688,238.7031 Q622.3438,238.125 621.75,237.8594 Q621.1563,237.5781 620.5313,237.5781 Q619.1875,237.5781 618.5,238.6563 Q617.8125,239.7188 617.8125,241.8125 Q617.8125,243.9063 618.5,244.9844 Q619.1875,246.0469 620.5313,246.0469 Q621.1563,246.0469 621.75,245.7813 Q622.3438,245.5 622.9688,244.9219 L622.9688,247.6406 Z "/><text fill="#000000" font-family="sans-serif" font-size="12" lengthAdjust="spacingAndGlyphs" textLength="165" x="634" y="246.1543">IntersectionTypeException</text><!--MD5=[20c5371690c0d9ba26015d403e1b9c7e]
class Phpolar\\PropertyInjector\\Exception\\InvalidAttributeConfigurationException--><rect fill="#FEFECE" height="32" id="Phpolar\\PropertyInjector\\Exception\\InvalidAttributeConfigurationException" style="stroke: #A80036; stroke-width: 1.5;" width="271" x="274" y="193"/><ellipse cx="289" cy="209" fill="#ADD1B2" rx="11" ry="11" style="stroke: #A80036; stroke-width: 1.0;"/><path d="M291.9688,214.6406 Q291.3906,214.9375 290.75,215.0781 Q290.1094,215.2344 289.4063,215.2344 Q286.9063,215.2344 285.5781,213.5938 Q284.2656,211.9375 284.2656,208.8125 Q284.2656,205.6875 285.5781,204.0313 Q286.9063,202.375 289.4063,202.375 Q290.1094,202.375 290.75,202.5313 Q291.4063,202.6875 291.9688,202.9844 L291.9688,205.7031 Q291.3438,205.125 290.75,204.8594 Q290.1563,204.5781 289.5313,204.5781 Q288.1875,204.5781 287.5,205.6563 Q286.8125,206.7188 286.8125,208.8125 Q286.8125,210.9063 287.5,211.9844 Q288.1875,213.0469 289.5313,213.0469 Q290.1563,213.0469 290.75,212.7813 Q291.3438,212.5 291.9688,211.9219 L291.9688,214.6406 Z "/><text fill="#000000" font-family="sans-serif" font-size="12" lengthAdjust="spacingAndGlyphs" textLength="239" x="303" y="213.1543">InvalidAttributeConfigurationException</text><!--MD5=[162e6b3b091f8600c792cfd4bc0c3d98]
class Phpolar\\PropertyInjector\\Exception\\UnionTypeException--><rect fill="#FEFECE" height="32" id="Phpolar\\PropertyInjector\\Exception\\UnionTypeException" style="stroke: #A80036; stroke-width: 1.5;" width="158" x="624.5" y="159"/><ellipse cx="639.5" cy="175" fill="#ADD1B2" rx="11" ry="11" style="stroke: #A80036; stroke-width: 1.0;"/><path d="M642.4688,180.6406 Q641.8906,180.9375 641.25,181.0781 Q640.6094,181.2344 639.9063,181.2344 Q637.4063,181.2344 636.0781,179.5938 Q634.7656,177.9375 634.7656,174.8125 Q634.7656,171.6875 636.0781,170.0313 Q637.4063,168.375 639.9063,168.375 Q640.6094,168.375 641.25,168.5313 Q641.9063,168.6875 642.4688,168.9844 L642.4688,171.7031 Q641.8438,171.125 641.25,170.8594 Q640.6563,170.5781 640.0313,170.5781 Q638.6875,170.5781 638,171.6563 Q637.3125,172.7188 637.3125,174.8125 Q637.3125,176.9063 638,177.9844 Q638.6875,179.0469 640.0313,179.0469 Q640.6563,179.0469 641.25,178.7813 Q641.8438,178.5 642.4688,177.9219 L642.4688,180.6406 Z "/><text fill="#000000" font-family="sans-serif" font-size="12" lengthAdjust="spacingAndGlyphs" textLength="126" x="653.5" y="179.1543">UnionTypeException</text><!--MD5=[5c6c7d52e42032554528404b62c1d271]
class RuntimeException--><rect fill="#FEFECE" height="32" id="RuntimeException" style="stroke: #A80036; stroke-width: 1.5;" width="144" x="47" y="193"/><ellipse cx="62" cy="209" fill="#ADD1B2" rx="11" ry="11" style="stroke: #A80036; stroke-width: 1.0;"/><path d="M64.9688,214.6406 Q64.3906,214.9375 63.75,215.0781 Q63.1094,215.2344 62.4063,215.2344 Q59.9063,215.2344 58.5781,213.5938 Q57.2656,211.9375 57.2656,208.8125 Q57.2656,205.6875 58.5781,204.0313 Q59.9063,202.375 62.4063,202.375 Q63.1094,202.375 63.75,202.5313 Q64.4063,202.6875 64.9688,202.9844 L64.9688,205.7031 Q64.3438,205.125 63.75,204.8594 Q63.1563,204.5781 62.5313,204.5781 Q61.1875,204.5781 60.5,205.6563 Q59.8125,206.7188 59.8125,208.8125 Q59.8125,210.9063 60.5,211.9844 Q61.1875,213.0469 62.5313,213.0469 Q63.1563,213.0469 63.75,212.7813 Q64.3438,212.5 64.9688,211.9219 L64.9688,214.6406 Z "/><text fill="#000000" font-family="sans-serif" font-size="12" lengthAdjust="spacingAndGlyphs" textLength="112" x="76" y="213.1543">RuntimeException</text><!--MD5=[06856c9a1d08e3865026d5f9fa2254de]
reverse link Phpolar\\PropertyInjector\\Exception\\InvalidAttributeConfigurationException to Phpolar\\PropertyInjector\\Exception\\IntersectionTypeException--><path d="M565.14,214.33 C565.14,214.33 615,214.33 615,214.33 C615,214.33 615,219.82 615,225.91 " fill="none" id="Phpolar\\PropertyInjector\\Exception\\InvalidAttributeConfigurationException&lt;-Phpolar\\PropertyInjector\\Exception\\IntersectionTypeException" style="stroke: #516F42; stroke-width: 1.0;"/><polygon fill="none" points="565.14,221.33,545.14,214.33,565.14,207.33,565.14,221.33" style="stroke: #516F42; stroke-width: 1.0;"/><!--MD5=[9f7f3750d21cee7d107e643d6d220a16]
reverse link RuntimeException to Phpolar\\PropertyInjector\\Exception\\InvalidAttributeConfigurationException--><path d="M211.18,209 C211.18,209 273.93,209 273.93,209 " fill="none" id="RuntimeException&lt;-Phpolar\\PropertyInjector\\Exception\\InvalidAttributeConfigurationException" style="stroke: #516F42; stroke-width: 1.0;"/><polygon fill="none" points="211.18,216,191.18,209,211.18,202,211.18,216" style="stroke: #516F42; stroke-width: 1.0;"/><!--MD5=[e0c6f350d22de47f45613f6119e9073e]
reverse link Phpolar\\PropertyInjector\\Exception\\InvalidAttributeConfigurationException to Phpolar\\PropertyInjector\\Exception\\UnionTypeException--><path d="M565.11,203.67 C565.11,203.67 704,203.67 704,203.67 C704,203.67 704,197.58 704,191.01 " fill="none" id="Phpolar\\PropertyInjector\\Exception\\InvalidAttributeConfigurationException&lt;-Phpolar\\PropertyInjector\\Exception\\UnionTypeException" style="stroke: #516F42; stroke-width: 1.0;"/><polygon fill="none" points="565.11,210.67,545.11,203.67,565.11,196.67,565.11,210.67" style="stroke: #516F42; stroke-width: 1.0;"/><!--MD5=[7d925d44029d6c2e90cdf08ef1f3ecdd]
@startuml
   skinparam ArrowColor #516f42
   skinparam activityBorderColor #516f42
   skinparam activityBackgroundColor #ffffff
   skinparam activityDiamondBorderColor #516f42
   skinparam activityDiamondBackgroundColor #ffffff
   skinparam shadowing false

skinparam shadowing false
skinparam linetype ortho
hide empty members
left to right direction
set namespaceSeparator \\


class \\Phpolar\\PropertyInjector\\Inject {
}

class \\Phpolar\\PropertyInjector\\PropertyInjector {
}

class \\Phpolar\\PropertyInjector\\Exception\\IntersectionTypeException extends \\Phpolar\\PropertyInjector\\Exception\\InvalidAttributeConfigurationException {
}

class \\Phpolar\\PropertyInjector\\Exception\\InvalidAttributeConfigurationException extends \\RuntimeException {
}

class \\Phpolar\\PropertyInjector\\Exception\\UnionTypeException extends \\Phpolar\\PropertyInjector\\Exception\\InvalidAttributeConfigurationException {
}

@enduml

PlantUML version 1.2020.02(Sun Mar 01 04:22:07 CST 2020)
(GPL source distribution)
Java Runtime: OpenJDK Runtime Environment
JVM: OpenJDK 64-Bit Server VM
Java Version: 11.0.20+8-post-Ubuntu-1ubuntu122.04
Operating System: Linux
Default Encoding: UTF-8
Language: en
Country: US
--></g></svg>